<svg width="677" height="446" viewBox="0 0 677 446" fill="none" xmlns="http://www.w3.org/2000/svg">
<path d="M677 92.6924C677 143.725 635.578 185.095 584.481 185.095C533.384 185.095 491.962 143.725 491.962 92.6924C491.962 41.6596 533.384 0.289356 584.481 0.289356C635.578 0.289356 677 41.6596 677 92.6924Z" fill="black"/>
<path d="M254.717 128.719C230.993 87.6797 245.072 35.2035 286.162 11.5097C327.253 -12.1841 379.795 1.87688 403.518 42.9157L562.122 317.281C585.846 358.32 571.767 410.797 530.677 434.49C489.586 458.184 437.044 444.123 413.321 403.084L254.717 128.719Z" fill="black"/>
<path d="M11.5242 128.719C-12.1994 87.6797 1.87923 35.2035 42.9696 11.5097C84.0599 -12.1841 136.602 1.87688 160.326 42.9157L318.929 317.281C342.653 358.32 328.574 410.797 287.484 434.49C246.394 458.184 193.852 444.123 170.128 403.084L11.5242 128.719Z" fill="black"/>
</svg>
